HIERARCHY
ROOT Hips
{
	OFFSET 0.000000 0.000000 0.000000
	CHANNELS 6 Xposition Yposition Zposition Xrotation Yrotation Zrotation
	JOINT LeftUpLeg_virtual
	{
		OFFSET 0.000000 0.000000 0.000000
		CHANNELS 3 Xrotation Yrotation Zrotation
		JOINT LeftUpLeg
		{
			OFFSET 15.427100 -6.655098 0.678600
			CHANNELS 3 Xrotation Yrotation Zrotation
			JOINT LeftLeg
			{
				OFFSET 4.081073 -39.591068 13.024000
				CHANNELS 3 Xrotation Yrotation Zrotation
				JOINT LeftFoot
				{
					OFFSET -4.081074 -37.707932 -15.979700
					CHANNELS 3 Xrotation Yrotation Zrotation
					JOINT LeftToeBase
					{
						OFFSET 5.346399 -15.068900 20.645000
						CHANNELS 3 Xrotation Yrotation Zrotation
						JOINT LeftToe_End
						{
							OFFSET 2.754700 0.931300 11.300900
							CHANNELS 3 Xrotation Yrotation Zrotation
							End Site
							{
								OFFSET 0 0 0
							}
						}
					}
				}
			}
		}
	}
	JOINT RightUpLeg_virtual
	{
		OFFSET 0.000000 0.000000 0.000000
		CHANNELS 3 Xrotation Yrotation Zrotation
		JOINT RightUpLeg
		{
			OFFSET -15.569500 -6.655098 0.678600
			CHANNELS 3 Xrotation Yrotation Zrotation
			JOINT RightLeg
			{
				OFFSET -4.081825 -39.591045 13.023800
				CHANNELS 3 Xrotation Yrotation Zrotation
				JOINT RightFoot
				{
					OFFSET 4.081824 -37.707954 -15.979600
					CHANNELS 3 Xrotation Yrotation Zrotation
					JOINT RightToeBase
					{
						OFFSET -5.346400 -15.068900 20.645000
						CHANNELS 3 Xrotation Yrotation Zrotation
						JOINT RightToe_End
						{
							OFFSET -2.754700 0.931300 11.300900
							CHANNELS 3 Xrotation Yrotation Zrotation
							End Site
							{
								OFFSET 0 0 0
							}
						}
					}
				}
			}
		}
	}
	JOINT Spine_virtual
	{
		OFFSET 0.000000 0.000000 0.000000
		CHANNELS 3 Xrotation Yrotation Zrotation
		JOINT Spine
		{
			OFFSET -0.279200 12.230698 -2.892100
			CHANNELS 3 Xrotation Yrotation Zrotation
			JOINT Spine1
			{
				OFFSET -0.232667 10.192268 -1.242267
				CHANNELS 3 Xrotation Yrotation Zrotation
				JOINT Spine1_split
				{
					OFFSET -0.232667 10.192268 -1.242267
					CHANNELS 3 Xrotation Yrotation Zrotation
					JOINT Spine2
					{
						OFFSET -0.232667 10.192268 -1.242267
						CHANNELS 3 Xrotation Yrotation Zrotation
						JOINT Neck_virtual
						{
							OFFSET 0.000000 0.000000 0.000000
							CHANNELS 3 Xrotation Yrotation Zrotation
							JOINT Neck
							{
								OFFSET -0.418800 17.814194 8.416900
								CHANNELS 3 Xrotation Yrotation Zrotation
								JOINT Head
								{
									OFFSET 0.000000 7.031097 3.806800
									CHANNELS 3 Xrotation Yrotation Zrotation
									JOINT HeadTop_End
									{
										OFFSET 0.000000 24.646606 12.978600
										CHANNELS 3 Xrotation Yrotation Zrotation
										End Site
										{
											OFFSET 0 0 0
										}
									}
								}
							}
						}
						JOINT LeftShoulder_virtual
						{
							OFFSET 0.000000 0.000000 0.000000
							CHANNELS 3 Xrotation Yrotation Zrotation
							JOINT LeftShoulder
							{
								OFFSET 8.476499 7.247704 -3.868750
								CHANNELS 3 Xrotation Yrotation Zrotation
								JOINT LeftShoulder_split
								{
									OFFSET 8.476499 7.247704 -3.868750
									CHANNELS 3 Xrotation Yrotation Zrotation
									JOINT LeftArm
									{
										OFFSET 9.308998 -2.777710 0.208600
										CHANNELS 3 Xrotation Yrotation Zrotation
										JOINT LeftForeArm
										{
											OFFSET 29.972298 0.000000 0.000000
											CHANNELS 3 Xrotation Yrotation Zrotation
											JOINT LeftHand
											{
												OFFSET 26.026505 0.000000 0.000000
												CHANNELS 3 Xrotation Yrotation Zrotation
												End Site
												{
													OFFSET 0 0 0
												}
											}
										}
									}
								}
							}
						}
						JOINT RightShoulder_virtual
						{
							OFFSET 0.000000 0.000000 0.000000
							CHANNELS 3 Xrotation Yrotation Zrotation
							JOINT RightShoulder
							{
								OFFSET -7.570500 7.247704 -3.868750
								CHANNELS 3 Xrotation Yrotation Zrotation
								JOINT RightShoulder_split
								{
									OFFSET -7.570500 7.247704 -3.868750
									CHANNELS 3 Xrotation Yrotation Zrotation
									JOINT RightArm
									{
										OFFSET -9.308998 -2.777710 0.208500
										CHANNELS 3 Xrotation Yrotation Zrotation
										JOINT RightForeArm
										{
											OFFSET -29.972300 0.000000 0.000000
											CHANNELS 3 Xrotation Yrotation Zrotation
											JOINT RightHand
											{
												OFFSET -26.026505 0.000000 0.000000
												CHANNELS 3 Xrotation Yrotation Zrotation
												End Site
												{
													OFFSET 0 0 0
												}
											}
										}
									}
								}
							}
						}
					}
				}
			}
		}
	}
}
MOTION
Frames: 9
Frame Time: 0.03333333
0.076635 95.363617 -4.282471 0.000000 0.000000 0.000000 -86.911090 -6.912715 -1.246180 6.312604 22.295431 14.527932 -2.260173 0.213994 2.398489 14.604695 29.293008 -23.013305 -2.204129 -0.631100 0.153809 0.000000 0.000000 0.000000 -89.172778 -3.430217 0.855466 5.927432 -25.155896 -19.985794 0.930477 -0.827672 -2.701643 21.345272 -33.362592 27.170523 -8.412332 1.191399 -2.332537 0.000000 0.000000 0.000000 -87.205595 -6.907578 -2.614382 1.204649 -0.118312 -0.230619 -1.299490 0.470128 -0.249279 0.720026 0.931325 -0.360959 0.000000 0.000000 0.000000 -1.329851 0.542283 -0.293119 -5.359681 4.462445 -8.736317 3.417056 8.155657 -11.355493 0.000000 0.000000 0.000000 -0.361468 0.558618 -0.083072 0.316994 -6.162159 -0.619336 -0.569229 1.523991 -3.114865 45.180165 -42.043943 -31.449203 4.577207 -86.245475 3.798916 0.000000 0.000000 0.000000 -0.269102 0.838834 -0.486855 0.348734 0.536349 2.731359 7.358692 7.436311 -0.737057 -4.960734 1.411405 81.085936 -179.242209 54.443493 -179.915693 0.000000 0.000000 0.000000 
0.103193 95.366852 -4.278122 0.000000 0.000000 0.000000 -86.916725 -6.900480 -1.231427 6.309405 22.271321 14.529904 -2.268950 0.196801 2.378603 14.599202 29.282455 -23.002131 -2.203041 -0.632651 0.156547 0.000000 0.000000 0.000000 -89.168659 -3.423536 0.866238 5.916693 -25.159784 -20.003771 0.922331 -0.824761 -2.707771 21.352515 -33.358637 27.173276 -8.427005 1.187423 -2.329357 0.000000 0.000000 0.000000 -87.202296 -6.891175 -2.613120 1.211323 -0.114533 -0.213921 -1.296163 0.472486 -0.246896 0.739715 0.917172 -0.345792 0.000000 0.000000 0.000000 -1.334683 0.547880 -0.291678 -5.306333 4.521813 -8.778852 3.498117 8.261291 -11.352079 0.000000 0.000000 0.000000 -0.355089 0.559633 -0.093903 0.316776 -6.171293 -0.627389 -0.551361 1.580230 -3.078739 45.159073 -42.057631 -31.462918 4.604728 -86.245529 3.827015 0.000000 0.000000 0.000000 -0.255503 0.852303 -0.476796 0.359599 0.536979 2.739825 7.354067 7.423146 -0.772939 -4.925220 1.462227 81.035222 -179.269202 54.456586 -179.881255 0.000000 0.000000 0.000000 
0.129635 95.371964 -4.275227 0.000000 0.000000 0.000000 -86.920038 -6.889327 -1.211272 6.309677 22.250518 14.525198 -2.279891 0.170368 2.360535 14.589646 29.271387 -22.986553 -2.192936 -0.635860 0.154433 0.000000 0.000000 0.000000 -89.163660 -3.418903 0.880752 5.897909 -25.179173 -20.029933 0.920414 -0.818047 -2.721035 21.341585 -33.360379 27.168553 -8.451790 1.184448 -2.324297 0.000000 0.000000 0.000000 -87.200171 -6.886615 -2.618204 1.220452 -0.116823 -0.187032 -1.295334 0.473951 -0.242414 0.749815 0.899795 -0.316706 0.000000 0.000000 0.000000 -1.341714 0.552083 -0.289532 -5.318904 4.562145 -8.768639 3.865709 8.383780 -11.535753 0.000000 0.000000 0.000000 -0.349164 0.556197 -0.101426 0.311712 -6.167289 -0.647869 -0.520518 1.639505 -3.019048 45.113686 -42.060985 -31.519848 4.493168 -86.245427 3.719476 0.000000 0.000000 0.000000 -0.243584 0.862495 -0.466114 0.372343 0.530358 2.776858 7.337175 7.413595 -0.803409 -4.916254 1.573128 80.948124 -179.290335 54.507648 -179.841094 0.000000 0.000000 0.000000 
0.154450 95.377670 -4.278450 0.000000 0.000000 0.000000 -86.920591 -6.881554 -1.189192 6.310288 22.232759 14.517712 -2.287126 0.132990 2.346671 14.574553 29.258837 -22.973123 -2.177427 -0.640129 0.148140 0.000000 0.000000 0.000000 -89.157021 -3.414003 0.899394 5.868658 -25.213133 -20.061589 0.927818 -0.804910 -2.738206 21.321720 -33.361731 27.164197 -8.488865 1.182496 -2.317448 0.000000 0.000000 0.000000 -87.201305 -6.892559 -2.630295 1.229348 -0.125427 -0.154244 -1.298166 0.474382 -0.236417 0.748174 0.880012 -0.288325 0.000000 0.000000 0.000000 -1.352372 0.555551 -0.285202 -5.393706 4.584046 -8.720573 4.505295 8.511248 -11.898478 0.000000 0.000000 0.000000 -0.342992 0.548573 -0.105715 0.304130 -6.155586 -0.686490 -0.480788 1.691164 -2.936602 45.054602 -42.055121 -31.598009 4.241202 -86.225865 3.476805 0.000000 0.000000 0.000000 -0.233789 0.868235 -0.456643 0.386873 0.509059 2.831690 7.314327 7.417953 -0.830872 -4.925907 1.724195 80.839366 -179.295034 54.555672 -179.809019 0.000000 0.000000 0.000000 
0.175470 95.383003 -4.287689 0.000000 0.000000 0.000000 -86.923877 -6.880673 -1.170227 6.307990 22.218962 14.510573 -2.287476 0.082953 2.338041 14.556637 29.241092 -22.970379 -2.161293 -0.644929 0.138882 0.000000 0.000000 0.000000 -89.148128 -3.403283 0.926048 5.835710 -25.260761 -20.093404 0.940351 -0.781493 -2.757886 21.298072 -33.358220 27.163823 -8.549782 1.181979 -2.309828 0.000000 0.000000 0.000000 -87.209215 -6.909961 -2.650288 1.235446 -0.140269 -0.120391 -1.302970 0.474133 -0.230154 0.750956 0.865126 -0.265850 0.000000 0.000000 0.000000 -1.364633 0.557965 -0.278875 -5.520585 4.594375 -8.654923 5.364637 8.634040 -12.419065 0.000000 0.000000 0.000000 -0.334954 0.538310 -0.108029 0.294825 -6.134541 -0.749604 -0.448275 1.724292 -2.840511 44.990056 -42.045941 -31.673343 3.878154 -86.177815 3.128876 0.000000 0.000000 0.000000 -0.225070 0.870435 -0.449866 0.400539 0.467917 2.890233 7.291329 7.437216 -0.851503 -4.945982 1.887702 80.731873 -179.278710 54.570882 -179.794061 0.000000 0.000000 0.000000 
0.191679 95.385689 -4.294727 0.000000 0.000000 0.000000 -86.934907 -6.886135 -1.156546 6.302052 22.211782 14.505928 -2.279785 0.021971 2.333494 14.536357 29.217480 -22.980028 -2.146799 -0.650152 0.127584 0.000000 0.000000 0.000000 -89.140505 -3.384383 0.960781 5.804288 -25.320495 -20.119661 0.955110 -0.750742 -2.779210 21.272558 -33.352599 27.162436 -8.633693 1.182804 -2.301692 0.000000 0.000000 0.000000 -87.226065 -6.935546 -2.673984 1.236080 -0.158736 -0.091496 -1.307382 0.473939 -0.223886 0.754906 0.862541 -0.258670 0.000000 0.000000 0.000000 -1.376779 0.559828 -0.271121 -5.683461 4.603107 -8.592831 6.376021 8.759121 -13.061340 0.000000 0.000000 0.000000 -0.326091 0.527717 -0.108544 0.285271 -6.103074 -0.834280 -0.433605 1.728203 -2.751869 44.921157 -42.043595 -31.726731 3.505616 -86.111883 2.774813 0.000000 0.000000 0.000000 -0.217874 0.870162 -0.446485 0.408777 0.403480 2.937360 7.279832 7.473487 -0.868868 -4.964879 2.038691 80.640471 -179.245310 54.549989 -179.797627 0.000000 0.000000 0.000000 
0.202601 95.384842 -4.297485 0.000000 0.000000 0.000000 -86.952748 -6.895457 -1.147299 6.293442 22.218481 14.504074 -2.265572 -0.042904 2.332000 14.510453 29.192727 -22.995609 -2.133213 -0.655234 0.114349 0.000000 0.000000 0.000000 -89.139221 -3.362085 0.996861 5.772426 -25.390870 -20.138391 0.971652 -0.719291 -2.799712 21.245812 -33.352025 27.152008 -8.724138 1.184559 -2.292416 0.000000 0.000000 0.000000 -87.249116 -6.967120 -2.698241 1.232966 -0.177390 -0.071408 -1.310368 0.474088 -0.218827 0.760132 0.884576 -0.254702 0.000000 0.000000 0.000000 -1.390343 0.561526 -0.262457 -5.871106 4.617015 -8.549710 7.442075 8.886103 -13.765965 0.000000 0.000000 0.000000 -0.317371 0.519305 -0.107400 0.277079 -6.056363 -0.937031 -0.428368 1.720629 -2.671713 44.856909 -42.061350 -31.742505 3.181010 -86.047051 2.468336 0.000000 0.000000 0.000000 -0.209494 0.868873 -0.446191 0.409881 0.320014 2.965221 7.283534 7.516987 -0.894192 -4.977244 2.166018 80.582579 -179.205996 54.519287 -179.814388 0.000000 0.000000 0.000000 
0.209729 95.384781 -4.297665 0.000000 0.000000 0.000000 -86.972460 -6.903342 -1.139982 6.281281 22.245402 14.505348 -2.249511 -0.105493 2.333524 14.475951 29.171530 -23.009821 -2.120616 -0.659202 0.099550 0.000000 0.000000 0.000000 -89.143039 -3.340189 1.029555 5.738560 -25.469816 -20.149331 0.989611 -0.690453 -2.817017 21.220295 -33.359494 27.132781 -8.808297 1.186562 -2.281517 0.000000 0.000000 0.000000 -87.275802 -7.000644 -2.717301 1.230354 -0.193836 -0.061411 -1.310246 0.474794 -0.214883 0.753962 0.911407 -0.247397 0.000000 0.000000 0.000000 -1.404898 0.563547 -0.254567 -6.076398 4.639834 -8.528676 8.452860 9.012061 -14.467550 0.000000 0.000000 0.000000 -0.311574 0.514914 -0.103813 0.270955 -5.987734 -1.043447 -0.429747 1.700317 -2.604029 44.818687 -42.097331 -31.707367 2.912101 -85.995715 2.213939 0.000000 0.000000 0.000000 -0.198316 0.868223 -0.447599 0.401297 0.223521 2.971397 7.299865 7.562833 -0.909633 -4.987497 2.260148 80.564499 -179.172364 54.516630 -179.838061 0.000000 0.000000 0.000000 
0.214747 95.386169 -4.296379 0.000000 0.000000 0.000000 -86.990423 -6.907842 -1.134149 6.264360 22.292486 14.508601 -2.233890 -0.161279 2.336965 14.435813 29.156544 -23.021158 -2.110826 -0.661673 0.085092 0.000000 0.000000 0.000000 -89.148428 -3.321468 1.057238 5.703541 -25.550904 -20.153552 1.009342 -0.664914 -2.828498 21.198179 -33.374428 27.108626 -8.884799 1.188364 -2.269507 0.000000 0.000000 0.000000 -87.300445 -7.031334 -2.728339 1.229698 -0.206224 -0.061612 -1.306844 0.474929 -0.212249 0.744006 0.948043 -0.242188 0.000000 0.000000 0.000000 -1.420271 0.565192 -0.247768 -6.295456 4.659334 -8.519815 9.323309 9.120585 -15.097923 0.000000 0.000000 0.000000 -0.312382 0.515102 -0.097582 0.268629 -5.906077 -1.135657 -0.436931 1.667392 -2.547343 44.813329 -42.142851 -31.626013 2.694616 -85.960854 2.008053 0.000000 0.000000 0.000000 -0.188070 0.868025 -0.450603 0.383887 0.117214 2.954446 7.326390 7.607920 -0.895988 -5.000211 2.321155 80.579860 -179.148772 54.556218 -179.865901 0.000000 0.000000 0.000000 
